# xmcd
#
# Track frame offsets:
#	150
#	21582
#	38100
#	55339
#	79853
#	100685
#	122223
#
# Disc length: 1906 seconds
#
# Revision: 0
# Processed by: cddbd v1.5.2PL0 Copyright (c) Steve Scherf et al.
# Submitted via: EasyCDDAExtractor 12.0.1.1
#
DISCID=58077007
DTITLE=Nelly Furtado - The Best ofNelly Furtado
DYEAR=2010
DGENRE=pop
TTITLE0=Quando, Quando, Quando [*]
TTITLE1=Te Busque [*]
TTITLE2=Island of Wonder [*]
TTITLE3=I'm Like a Bird [*][Nelly Vs Asha Remix]
TTITLE4=Who Wants To Be Alone [*]
TTITLE5=Sacrifice [*]
TTITLE6=In God's Hands [*]
EXTD=
EXTT0=
EXTT1=
EXTT2=
EXTT3=
EXTT4=
EXTT5=
EXTT6=
PLAYORDER=
